<svg width="30" height="30" viewBox="0 0 26 26" fill="none"
    xmlns="http://www.w3.org/2000/svg">
    <g id="Buy">
        <path id="Buy_2" fill-rule="evenodd" clip-rule="evenodd" d="M15.6516 12.0414H19.1114C19.636 12.0414 20.0482 11.6077 20.0482 11.0847C20.0482 10.5489 19.636 10.1279 19.1114 10.1279H15.6516C15.127 10.1279 14.7148 10.5489 14.7148 11.0847C14.7148 11.6077 15.127 12.0414 15.6516 12.0414ZM23.2207 5.40937C23.9826 5.40937 24.4822 5.67725 24.9818 6.26404C25.4815 6.85084 25.5689 7.69276 25.4565 8.45686L24.2699 16.825C24.0451 18.4336 22.6961 19.6187 21.1099 19.6187H7.48299C5.82178 19.6187 4.44785 18.3188 4.31046 16.635L3.16135 2.72925L1.27532 2.39759C0.775713 2.30829 0.425985 1.8108 0.513417 1.30054C0.600849 0.778806 1.08797 0.433109 1.60007 0.510923L4.579 0.968876C5.00367 1.04669 5.31592 1.40259 5.35339 1.83631L5.59071 4.69373C5.62818 5.10321 5.95293 5.40937 6.35262 5.40937H23.2207ZM7.28289 21.6348C6.23371 21.6348 5.38437 22.5023 5.38437 23.5738C5.38437 24.6326 6.23371 25.5 7.28289 25.5C8.31958 25.5 9.16892 24.6326 9.16892 23.5738C9.16892 22.5023 8.31958 21.6348 7.28289 21.6348ZM21.3344 21.6348C20.2853 21.6348 19.4359 22.5023 19.4359 23.5738C19.4359 24.6326 20.2853 25.5 21.3344 25.5C22.3711 25.5 23.2205 24.6326 23.2205 23.5738C23.2205 22.5023 22.3711 21.6348 21.3344 21.6348Z" fill="#FF887E"/>
    </g>
</svg>
