<svg width="31" height="31" viewBox="0 0 31 31" fill="none" xmlns="http://www.w3.org/2000/svg">
<g id="Close Square">
<path id="Close Square_2" fill-rule="evenodd" clip-rule="evenodd" d="M9.18525 0.915497H21.829C26.7728 0.915497 30.0832 4.38633 30.0832 9.54883V21.4649C30.0832 26.6128 26.7728 30.0822 21.829 30.0822H9.18525C4.2415 30.0822 0.916504 26.6128 0.916504 21.4649V9.54883C0.916504 4.38633 4.2415 0.915497 9.18525 0.915497ZM19.8894 19.8738C20.3853 19.3795 20.3853 18.5774 19.8894 18.0815L17.2936 15.4857L19.8894 12.8884C20.3853 12.394 20.3853 11.5774 19.8894 11.0815C19.3936 10.5842 18.5915 10.5842 18.0811 11.0815L15.4998 13.6759L12.904 11.0815C12.3936 10.5842 11.5915 10.5842 11.0957 11.0815C10.5998 11.5774 10.5998 12.394 11.0957 12.8884L13.6915 15.4857L11.0957 18.067C10.5998 18.5774 10.5998 19.3795 11.0957 19.8738C11.3436 20.1217 11.679 20.2545 11.9998 20.2545C12.3353 20.2545 12.6561 20.1217 12.904 19.8738L15.4998 17.294L18.0957 19.8738C18.3436 20.1378 18.6644 20.2545 18.9853 20.2545C19.3207 20.2545 19.6415 20.1217 19.8894 19.8738Z" fill="#FF7A6F"/>
</g>
</svg>
