<svg width="26" height="26" viewBox="0 0 26 26" fill="none" xmlns="http://www.w3.org/2000/svg">
<g id="Folder">
<path id="Folder_2" fill-rule="evenodd" clip-rule="evenodd" d="M14.8124 4.10025H18.6499C23.2624 4.10025 25.5124 6.56275 25.4999 11.6128V17.7003C25.4999 22.5252 22.5249 25.5002 17.6874 25.5002H8.29988C3.48738 25.5002 0.499878 22.5252 0.499878 17.6878V8.30025C0.499878 3.12525 2.79988 0.50025 7.33738 0.50025H9.31238C10.4761 0.48775 11.5624 1.02525 12.2749 1.93775L13.3749 3.40025C13.7249 3.83775 14.2499 4.10025 14.8124 4.10025ZM7.21238 17.1127H18.7874C19.2999 17.1127 19.7124 16.6878 19.7124 16.1752C19.7124 15.6502 19.2999 15.2377 18.7874 15.2377H7.21238C6.68738 15.2377 6.27488 15.6502 6.27488 16.1752C6.27488 16.6878 6.68738 17.1127 7.21238 17.1127Z" fill="#FF887E"/>
</g>
</svg>
