<svg width="199" height="36" viewBox="0 0 199 36" fill="none" xmlns="http://www.w3.org/2000/svg">
<g id="Logo" clip-path="url(#clip0_2_30)">
<path id="Vector" d="M13.4125 29.7534C9.57861 33.4604 3.08551 33.4456 1.27217 28.505C0.917138 27.5378 0.633281 26.5432 0.424504 25.5283C-0.427926 21.3846 0.00957216 17.0897 1.68168 13.1864C3.35378 9.28328 6.18538 5.94715 9.81841 3.59998C13.4515 1.2528 17.7228 -1.80974e-07 22.0922 0C26.4616 1.80974e-07 30.7329 1.2528 34.3659 3.59998C37.999 5.94715 40.8306 9.28328 42.5027 13.1866C44.1748 17.0897 44.6122 21.3846 43.7598 25.5283C43.5511 26.5432 43.2672 27.5378 42.9121 28.505C41.0988 33.4456 34.6057 33.4604 30.7718 29.7534L24.8537 24.0311C24.2883 23.4844 24.3467 22.5828 24.5027 21.8246C24.5974 21.3636 24.5488 20.8858 24.3627 20.4516C24.1767 20.0174 23.8618 19.6462 23.4576 19.3851C23.0534 19.1241 22.5783 18.9847 22.0922 18.9847C21.6061 18.9847 21.131 19.1241 20.7268 19.3851C20.3225 19.6462 20.0076 20.0174 19.8216 20.4516C19.6355 20.8858 19.5869 21.3636 19.6817 21.8246C19.8377 22.5828 19.896 23.4844 19.3306 24.0311L13.4125 29.7534Z" fill="url(#paint0_linear_2_30)"/>
<path id="Vector_2" d="M62.158 24.6249H68.0963V28.0085H57.6246V10.014H62.158V24.6249Z" fill="#3A3B7B"/>
<path id="Vector_3" d="M76.197 28.2136C74.7477 28.2136 73.4399 27.9145 72.2733 27.3164C71.1247 26.7183 70.2144 25.8639 69.5428 24.7531C68.8889 23.6423 68.5619 22.3436 68.5619 20.8568C68.5619 19.3872 68.8977 18.097 69.5692 16.9862C70.241 15.8584 71.16 14.9954 72.3264 14.3973C73.4929 13.7992 74.8008 13.5001 76.25 13.5001C77.6992 13.5001 79.0071 13.7992 80.1735 14.3973C81.34 14.9954 82.259 15.8584 82.9306 16.9862C83.6022 18.097 83.9381 19.3872 83.9381 20.8568C83.9381 22.3265 83.5934 23.6252 82.9042 24.7531C82.2326 25.8639 81.3047 26.7183 80.1205 27.3164C78.9541 27.9145 77.6462 28.2136 76.197 28.2136ZM76.197 24.4198C77.0629 24.4198 77.7964 24.1123 78.3974 23.4971C79.016 22.8818 79.3253 22.0018 79.3253 20.8568C79.3253 19.7119 79.0247 18.8318 78.4238 18.2166C77.8406 17.6014 77.116 17.2938 76.25 17.2938C75.3663 17.2938 74.6328 17.6014 74.0496 18.2166C73.4663 18.8147 73.1747 19.6947 73.1747 20.8568C73.1747 22.0018 73.4576 22.8818 74.0231 23.4971C74.6064 24.1123 75.331 24.4198 76.197 24.4198Z" fill="#3A3B7B"/>
<path id="Vector_4" d="M91.1679 13.5001C92.2107 13.5001 93.1209 13.7052 93.8986 14.1154C94.6938 14.5254 95.3037 15.0638 95.7278 15.7301V13.7052H100.261V27.9828C100.261 29.2987 99.9872 30.4864 99.4393 31.5458C98.909 32.6225 98.0872 33.4769 96.9738 34.1091C95.8781 34.7415 94.5083 35.0577 92.8647 35.0577C90.6731 35.0577 88.8969 34.5535 87.536 33.5453C86.1752 32.5541 85.3974 31.2041 85.2031 29.4952H89.6834C89.8247 30.042 90.1606 30.4693 90.6908 30.7769C91.221 31.1015 91.875 31.2639 92.6526 31.2639C93.5893 31.2639 94.3315 30.999 94.8795 30.4693C95.445 29.9566 95.7278 29.1278 95.7278 27.9828V25.9579C95.2859 26.6242 94.6762 27.1712 93.8986 27.5983C93.1209 28.0085 92.2107 28.2136 91.1679 28.2136C89.9485 28.2136 88.8439 27.9145 87.8541 27.3164C86.8644 26.7012 86.0779 25.8382 85.4948 24.7274C84.9292 23.5996 84.6464 22.3009 84.6464 20.8312C84.6464 19.3615 84.9292 18.0714 85.4948 16.9606C86.0779 15.8498 86.8644 14.9954 87.8541 14.3973C88.8439 13.7992 89.9485 13.5001 91.1679 13.5001ZM95.7278 20.8568C95.7278 19.7631 95.4097 18.9001 94.7734 18.2679C94.1548 17.6357 93.3948 17.3195 92.4935 17.3195C91.5921 17.3195 90.8233 17.6357 90.187 18.2679C89.5685 18.8831 89.2592 19.7376 89.2592 20.8312C89.2592 21.9249 89.5685 22.7964 90.187 23.4458C90.8233 24.078 91.5921 24.3942 92.4935 24.3942C93.3948 24.3942 94.1548 24.078 94.7734 23.4458C95.4097 22.8134 95.7278 21.9506 95.7278 20.8568Z" fill="#3A3B7B"/>
<path id="Vector_5" d="M109.479 28.2136C108.03 28.2136 106.722 27.9145 105.556 27.3164C104.407 26.7183 103.497 25.8639 102.825 24.7531C102.171 23.6423 101.844 22.3436 101.844 20.8568C101.844 19.3872 102.18 18.097 102.852 16.9862C103.523 15.8584 104.442 14.9954 105.609 14.3973C106.775 13.7992 108.083 13.5001 109.532 13.5001C110.981 13.5001 112.289 13.7992 113.456 14.3973C114.622 14.9954 115.541 15.8584 116.213 16.9862C116.884 18.097 117.22 19.3872 117.22 20.8568C117.22 22.3265 116.876 23.6252 116.186 24.7531C115.515 25.8639 114.587 26.7183 113.403 27.3164C112.236 27.9145 110.928 28.2136 109.479 28.2136ZM109.479 24.4198C110.345 24.4198 111.079 24.1123 111.68 23.4971C112.298 22.8818 112.607 22.0018 112.607 20.8568C112.607 19.7119 112.307 18.8318 111.706 18.2166C111.123 17.6014 110.398 17.2938 109.532 17.2938C108.648 17.2938 107.915 17.6014 107.332 18.2166C106.749 18.8147 106.457 19.6947 106.457 20.8568C106.457 22.0018 106.74 22.8818 107.305 23.4971C107.889 24.1123 108.613 24.4198 109.479 24.4198Z" fill="#3A3B7B"/>
<path id="Vector_6" d="M121.11 12.2184C120.315 12.2184 119.661 11.9963 119.148 11.552C118.653 11.0906 118.406 10.5267 118.406 9.8602C118.406 9.17665 118.653 8.61271 119.148 8.1684C119.661 7.707 120.315 7.47631 121.11 7.47631C121.888 7.47631 122.524 7.707 123.019 8.1684C123.531 8.61271 123.787 9.17665 123.787 9.8602C123.787 10.5267 123.531 11.0906 123.019 11.552C122.524 11.9963 121.888 12.2184 121.11 12.2184ZM123.363 13.7052V28.0085H118.83V13.7052H123.363Z" fill="#3A3B7B"/>
<path id="Vector_7" d="M130.386 15.7301C130.828 15.0638 131.438 14.5254 132.216 14.1154C132.994 13.7052 133.904 13.5001 134.946 13.5001C136.166 13.5001 137.27 13.7992 138.26 14.3973C139.25 14.9954 140.028 15.8498 140.593 16.9606C141.176 18.0714 141.468 19.3615 141.468 20.8312C141.468 22.3009 141.176 23.5996 140.593 24.7274C140.028 25.8382 139.25 26.7012 138.26 27.3164C137.27 27.9145 136.166 28.2136 134.946 28.2136C133.921 28.2136 133.012 28.0085 132.216 27.5983C131.438 27.1882 130.828 26.6585 130.386 26.0091V34.8269H125.853V13.7052H130.386V15.7301ZM136.856 20.8312C136.856 19.7376 136.537 18.8831 135.9 18.2679C135.281 17.6357 134.514 17.3195 133.594 17.3195C132.693 17.3195 131.924 17.6357 131.287 18.2679C130.67 18.9001 130.36 19.7631 130.36 20.8568C130.36 21.9506 130.67 22.8134 131.287 23.4458C131.924 24.078 132.693 24.3942 133.594 24.3942C134.496 24.3942 135.265 24.078 135.9 23.4458C136.537 22.7964 136.856 21.9249 136.856 20.8312Z" fill="#3A3B7B"/>
<path id="Vector_8" d="M149.069 28.2136C147.779 28.2136 146.63 27.9999 145.622 27.5728C144.615 27.1455 143.819 26.5645 143.236 25.8296C142.653 25.0777 142.326 24.2404 142.255 23.3176H146.736C146.789 23.8131 147.028 24.2147 147.451 24.5223C147.876 24.8299 148.398 24.9838 149.016 24.9838C149.581 24.9838 150.014 24.8812 150.314 24.6761C150.633 24.4541 150.792 24.172 150.792 23.8303C150.792 23.4201 150.571 23.1211 150.129 22.9331C149.688 22.728 148.971 22.506 147.982 22.2666C146.921 22.0274 146.038 21.7796 145.33 21.5233C144.624 21.2499 144.014 20.8312 143.502 20.2673C142.989 19.6863 142.733 18.9087 142.733 17.9347C142.733 17.1144 142.963 16.3711 143.423 15.7046C143.899 15.0211 144.588 14.4827 145.49 14.0897C146.409 13.6966 147.496 13.5001 148.751 13.5001C150.606 13.5001 152.064 13.9444 153.125 14.833C154.203 15.7217 154.822 16.9008 154.981 18.3704H150.792C150.721 17.8749 150.492 17.4818 150.103 17.1912C149.731 16.9008 149.237 16.7555 148.618 16.7555C148.088 16.7555 147.681 16.8581 147.399 17.0631C147.116 17.2511 146.975 17.516 146.975 17.8577C146.975 18.2679 147.196 18.5755 147.637 18.7806C148.097 18.9857 148.803 19.1907 149.758 19.3957C150.854 19.6692 151.746 19.9426 152.435 20.216C153.125 20.4723 153.726 20.8995 154.238 21.4977C154.768 22.0787 155.043 22.8647 155.061 23.856C155.061 24.6933 154.813 25.4452 154.317 26.1117C153.841 26.761 153.143 27.2737 152.223 27.6496C151.322 28.0256 150.271 28.2136 149.069 28.2136Z" fill="#3A3B7B"/>
<path id="Vector_9" d="M171.646 13.7052V28.0085H167.113V26.0604C166.653 26.6926 166.025 27.2053 165.23 27.5983C164.452 27.9744 163.587 28.1623 162.632 28.1623C161.501 28.1623 160.502 27.9231 159.637 27.4445C158.77 26.949 158.098 26.2398 157.622 25.3171C157.145 24.3942 156.906 23.3091 156.906 22.0615V13.7052H161.412V21.472C161.412 22.429 161.669 23.1723 162.181 23.7021C162.693 24.2318 163.383 24.4968 164.249 24.4968C165.133 24.4968 165.831 24.2318 166.343 23.7021C166.856 23.1723 167.113 22.429 167.113 21.472V13.7052H171.646Z" fill="#3A3B7B"/>
<path id="Vector_10" d="M192.982 13.5514C194.82 13.5514 196.278 14.0897 197.357 15.1663C198.452 16.2428 199 17.7381 199 19.652V28.0085H194.494V20.2417C194.494 19.3188 194.237 18.6096 193.725 18.1141C193.229 17.6014 192.541 17.345 191.656 17.345C190.773 17.345 190.075 17.6014 189.562 18.1141C189.068 18.6096 188.82 19.3188 188.82 20.2417V28.0085H184.312V20.2417C184.312 19.3188 184.057 18.6096 183.545 18.1141C183.049 17.6014 182.36 17.345 181.476 17.345C180.593 17.345 179.895 17.6014 179.382 18.1141C178.887 18.6096 178.64 19.3188 178.64 20.2417V28.0085H174.107V13.7052H178.64V15.4995C179.1 14.9014 179.701 14.4314 180.443 14.0897C181.185 13.7308 182.025 13.5514 182.961 13.5514C184.075 13.5514 185.065 13.782 185.93 14.2435C186.813 14.7049 187.503 15.3628 187.998 16.2173C188.511 15.4311 189.209 14.7903 190.092 14.2947C190.976 13.7992 191.94 13.5514 192.982 13.5514Z" fill="#3A3B7B"/>
</g>
<defs>
<linearGradient id="paint0_linear_2_30" x1="42.1734" y1="10.6805" x2="2.9598" y2="10.6805" gradientUnits="userSpaceOnUse">
<stop stop-color="#64C2DB"/>
<stop offset="0.510417" stop-color="#7476ED"/>
<stop offset="1" stop-color="#E56F8C"/>
</linearGradient>
<clipPath id="clip0_2_30">
<rect width="199" height="36" fill="white"/>
</clipPath>
</defs>
</svg>
